<svg width="48" height="48" viewBox="0 0 48 48" fill="none" xmlns="http://www.w3.org/2000/svg">
<g id="Frame 521">
<rect width="48" height="48" fill="white"/>
<g id="Group 15">
<path id="Vector" d="M19.1284 24.0001C19.1284 21.3108 21.3073 19.1301 23.9958 19.1301C26.6843 19.1301 28.8643 21.3108 28.8643 24.0001C28.8643 26.6893 26.6843 28.87 23.9958 28.87C21.3073 28.87 19.1284 26.6893 19.1284 24.0001ZM16.4966 24.0001C16.4966 28.1431 19.8539 31.5014 23.9958 31.5014C28.1376 31.5014 31.495 28.1431 31.495 24.0001C31.495 19.857 28.1376 16.4987 23.9958 16.4987C19.8539 16.4987 16.4966 19.857 16.4966 24.0001ZM30.0393 16.2012C30.0392 16.5479 30.1419 16.8869 30.3343 17.1753C30.5268 17.4637 30.8004 17.6885 31.1206 17.8213C31.4407 17.9541 31.7931 17.9889 32.1331 17.9214C32.4731 17.8539 32.7854 17.6871 33.0306 17.442C33.2758 17.1969 33.4428 16.8847 33.5106 16.5446C33.5784 16.2046 33.5438 15.8521 33.4113 15.5317C33.2788 15.2113 33.0542 14.9375 32.7661 14.7447C32.478 14.552 32.1392 14.449 31.7926 14.4489H31.7919C31.3273 14.4491 30.8817 14.6338 30.5531 14.9623C30.2245 15.2909 30.0397 15.7365 30.0393 16.2012ZM18.0956 35.8912C16.6717 35.8263 15.8978 35.5891 15.3835 35.3886C14.7016 35.1231 14.2151 34.8069 13.7036 34.2959C13.1921 33.785 12.8755 33.2988 12.6112 32.6167C12.4107 32.1025 12.1735 31.3281 12.1088 29.9038C12.038 28.364 12.0238 27.9014 12.0238 24.0002C12.0238 20.0989 12.0391 19.6377 12.1088 18.0965C12.1736 16.6722 12.4126 15.8994 12.6112 15.3836C12.8766 14.7016 13.1928 14.2149 13.7036 13.7033C14.2144 13.1916 14.7004 12.8749 15.3835 12.6105C15.8975 12.41 16.6717 12.1727 18.0956 12.108C19.635 12.0372 20.0974 12.023 23.9958 12.023C27.8941 12.023 28.357 12.0383 29.8977 12.108C31.3216 12.1729 32.0943 12.4119 32.6098 12.6105C33.2917 12.8749 33.7782 13.1923 34.2897 13.7033C34.8012 14.2142 35.1167 14.7016 35.3821 15.3836C35.5826 15.8978 35.8198 16.6722 35.8845 18.0965C35.9553 19.6377 35.9695 20.0989 35.9695 24.0002C35.9695 27.9014 35.9553 28.3627 35.8845 29.9038C35.8197 31.3281 35.5813 32.1023 35.3821 32.6167C35.1167 33.2988 34.8005 33.7854 34.2897 34.2959C33.7789 34.8064 33.2917 35.1231 32.6098 35.3886C32.0958 35.5892 31.3216 35.8264 29.8977 35.8912C28.3583 35.962 27.8959 35.9761 23.9958 35.9761C20.0957 35.9761 19.6345 35.962 18.0956 35.8912ZM17.9746 9.47983C16.4199 9.55065 15.3575 9.79725 14.4297 10.1584C13.4689 10.5313 12.6555 11.0316 11.8426 11.8434C11.0298 12.6552 10.5309 13.4701 10.1581 14.4312C9.79707 15.3599 9.55054 16.422 9.47974 17.9772C9.40777 19.5348 9.3913 20.0328 9.3913 24.0001C9.3913 27.9673 9.40777 28.4653 9.47974 30.0229C9.55054 31.5782 9.79707 32.6402 10.1581 33.5689C10.5309 34.5294 11.0299 35.3453 11.8426 36.1567C12.6553 36.9681 13.4689 37.4678 14.4297 37.8417C15.3593 38.2029 16.4199 38.4495 17.9746 38.5203C19.5326 38.5911 20.0297 38.6087 23.9958 38.6087C27.9619 38.6087 28.4597 38.5923 30.0169 38.5203C31.5718 38.4495 32.6335 38.2029 33.5618 37.8417C34.5221 37.4678 35.3361 36.9685 36.1489 36.1567C36.9618 35.3449 37.4596 34.5294 37.8335 33.5689C38.1945 32.6402 38.4422 31.5781 38.5118 30.0229C38.5826 28.4641 38.5991 27.9673 38.5991 24.0001C38.5991 20.0328 38.5826 19.5348 38.5118 17.9772C38.441 16.4219 38.1945 15.3593 37.8335 14.4312C37.4596 13.4707 36.9605 12.6565 36.1489 11.8434C35.3374 11.0303 34.5221 10.5313 33.563 10.1584C32.6335 9.79725 31.5716 9.54948 30.0181 9.47983C28.4609 9.409 27.9631 9.39136 23.9969 9.39136C20.0308 9.39136 19.5326 9.40784 17.9746 9.47983Z" fill="#0C0C0C"/>
<path id="Vector_2" d="M19.1284 24.0001C19.1284 21.3108 21.3073 19.1301 23.9958 19.1301C26.6843 19.1301 28.8643 21.3108 28.8643 24.0001C28.8643 26.6893 26.6843 28.87 23.9958 28.87C21.3073 28.87 19.1284 26.6893 19.1284 24.0001ZM16.4966 24.0001C16.4966 28.1431 19.8539 31.5014 23.9958 31.5014C28.1376 31.5014 31.495 28.1431 31.495 24.0001C31.495 19.857 28.1376 16.4987 23.9958 16.4987C19.8539 16.4987 16.4966 19.857 16.4966 24.0001ZM30.0393 16.2012C30.0392 16.5479 30.1419 16.8869 30.3343 17.1753C30.5268 17.4637 30.8004 17.6885 31.1206 17.8213C31.4407 17.9541 31.7931 17.9889 32.1331 17.9214C32.4731 17.8539 32.7854 17.6871 33.0306 17.442C33.2758 17.1969 33.4428 16.8847 33.5106 16.5446C33.5784 16.2046 33.5438 15.8521 33.4113 15.5317C33.2788 15.2113 33.0542 14.9375 32.7661 14.7447C32.478 14.552 32.1392 14.449 31.7926 14.4489H31.7919C31.3273 14.4491 30.8817 14.6338 30.5531 14.9623C30.2245 15.2909 30.0397 15.7365 30.0393 16.2012ZM18.0956 35.8912C16.6717 35.8263 15.8978 35.5891 15.3835 35.3886C14.7016 35.1231 14.2151 34.8069 13.7036 34.2959C13.1921 33.785 12.8755 33.2988 12.6112 32.6167C12.4107 32.1025 12.1735 31.3281 12.1088 29.9038C12.038 28.364 12.0238 27.9014 12.0238 24.0002C12.0238 20.0989 12.0391 19.6377 12.1088 18.0965C12.1736 16.6722 12.4126 15.8994 12.6112 15.3836C12.8766 14.7016 13.1928 14.2149 13.7036 13.7033C14.2144 13.1916 14.7004 12.8749 15.3835 12.6105C15.8975 12.41 16.6717 12.1727 18.0956 12.108C19.635 12.0372 20.0974 12.023 23.9958 12.023C27.8941 12.023 28.357 12.0383 29.8977 12.108C31.3216 12.1729 32.0943 12.4119 32.6098 12.6105C33.2917 12.8749 33.7782 13.1923 34.2897 13.7033C34.8012 14.2142 35.1167 14.7016 35.3821 15.3836C35.5826 15.8978 35.8198 16.6722 35.8845 18.0965C35.9553 19.6377 35.9695 20.0989 35.9695 24.0002C35.9695 27.9014 35.9553 28.3627 35.8845 29.9038C35.8197 31.3281 35.5813 32.1023 35.3821 32.6167C35.1167 33.2988 34.8005 33.7854 34.2897 34.2959C33.7789 34.8064 33.2917 35.1231 32.6098 35.3886C32.0958 35.5892 31.3216 35.8264 29.8977 35.8912C28.3583 35.962 27.8959 35.9761 23.9958 35.9761C20.0957 35.9761 19.6345 35.962 18.0956 35.8912ZM17.9746 9.47983C16.4199 9.55065 15.3575 9.79725 14.4297 10.1584C13.4689 10.5313 12.6555 11.0316 11.8426 11.8434C11.0298 12.6552 10.5309 13.4701 10.1581 14.4312C9.79707 15.3599 9.55054 16.422 9.47974 17.9772C9.40777 19.5348 9.3913 20.0328 9.3913 24.0001C9.3913 27.9673 9.40777 28.4653 9.47974 30.0229C9.55054 31.5782 9.79707 32.6402 10.1581 33.5689C10.5309 34.5294 11.0299 35.3453 11.8426 36.1567C12.6553 36.9681 13.4689 37.4678 14.4297 37.8417C15.3593 38.2029 16.4199 38.4495 17.9746 38.5203C19.5326 38.5911 20.0297 38.6087 23.9958 38.6087C27.9619 38.6087 28.4597 38.5923 30.0169 38.5203C31.5718 38.4495 32.6335 38.2029 33.5618 37.8417C34.5221 37.4678 35.3361 36.9685 36.1489 36.1567C36.9618 35.3449 37.4596 34.5294 37.8335 33.5689C38.1945 32.6402 38.4422 31.5781 38.5118 30.0229C38.5826 28.4641 38.5991 27.9673 38.5991 24.0001C38.5991 20.0328 38.5826 19.5348 38.5118 17.9772C38.441 16.4219 38.1945 15.3593 37.8335 14.4312C37.4596 13.4707 36.9605 12.6565 36.1489 11.8434C35.3374 11.0303 34.5221 10.5313 33.563 10.1584C32.6335 9.79725 31.5716 9.54948 30.0181 9.47983C28.4609 9.409 27.9631 9.39136 23.9969 9.39136C20.0308 9.39136 19.5326 9.40784 17.9746 9.47983Z" fill="#696969"/>
</g>
</g>
</svg>
