<svg width="36" height="36" viewBox="0 0 36 36" fill="none" xmlns="http://www.w3.org/2000/svg">
<g id="line">
<path id="Vector" d="M21.382 14.3578V19.357C21.382 19.4836 21.2836 19.582 21.157 19.582H20.3555C20.2781 19.582 20.2078 19.5399 20.1727 19.4906L17.8805 16.3969V19.3641C17.8805 19.4906 17.782 19.5891 17.6555 19.5891H16.8539C16.7274 19.5891 16.6289 19.4906 16.6289 19.3641V14.3649C16.6289 14.2383 16.7274 14.1399 16.8539 14.1399H17.6485C17.7188 14.1399 17.7961 14.175 17.8313 14.2383L20.1235 17.332V14.3649C20.1235 14.2383 20.2219 14.1399 20.3485 14.1399H21.15C21.2766 14.1328 21.382 14.2383 21.382 14.3578ZM15.6164 14.1328H14.8149C14.6883 14.1328 14.5899 14.2313 14.5899 14.3578V19.357C14.5899 19.4836 14.6883 19.582 14.8149 19.582H15.6164C15.743 19.582 15.8414 19.4836 15.8414 19.357V14.3578C15.8414 14.2383 15.743 14.1328 15.6164 14.1328ZM13.6828 18.3235H11.4961V14.3578C11.4961 14.2313 11.3977 14.1328 11.2711 14.1328H10.4695C10.343 14.1328 10.2445 14.2313 10.2445 14.3578V19.357C10.2445 19.4203 10.2656 19.4695 10.3078 19.5117C10.35 19.5469 10.3992 19.575 10.4625 19.575H13.6758C13.8024 19.575 13.9008 19.4766 13.9008 19.35V18.5485C13.9008 18.4289 13.8024 18.3235 13.6828 18.3235ZM25.6008 14.1328H22.3875C22.268 14.1328 22.1625 14.2313 22.1625 14.3578V19.357C22.1625 19.4766 22.261 19.582 22.3875 19.582H25.6008C25.7274 19.582 25.8258 19.4836 25.8258 19.357V18.5555C25.8258 18.4289 25.7274 18.3305 25.6008 18.3305H23.4141V17.4867H25.6008C25.7274 17.4867 25.8258 17.3883 25.8258 17.2617V16.4531C25.8258 16.3266 25.7274 16.2281 25.6008 16.2281H23.4141V15.3844H25.6008C25.7274 15.3844 25.8258 15.286 25.8258 15.1594V14.3578C25.8188 14.2383 25.7203 14.1328 25.6008 14.1328ZM33.75 7.99455V28.0547C33.743 31.2047 31.1625 33.757 28.0055 33.75H7.94533C4.79533 33.743 2.24298 31.1555 2.25001 28.0055V7.94533C2.25705 4.79533 4.84455 2.24298 7.99455 2.25001H28.0547C31.2047 2.25705 33.757 4.83751 33.75 7.99455ZM29.4188 16.6149C29.4188 11.482 24.2719 7.30548 17.9508 7.30548C11.6297 7.30548 6.48283 11.482 6.48283 16.6149C6.48283 21.2133 10.561 25.0664 16.0735 25.7977C17.4164 26.086 17.2617 26.5781 16.9594 28.3852C16.9102 28.6735 16.7274 29.5172 17.9508 29.0039C19.1742 28.4906 24.5531 25.1156 26.9649 22.3453C28.6242 20.5172 29.4188 18.668 29.4188 16.6149Z" fill="#696969"/>
</g>
</svg>
